<?xml version="1.0" standalone="no"?>
<!DOCTYPE svg PUBLIC "-//W3C//DTD SVG 20010904//EN"
 "http://www.w3.org/TR/2001/REC-SVG-20010904/DTD/svg10.dtd">
<svg version="1.0" xmlns="http://www.w3.org/2000/svg"
 width="754.000000pt" height="754.000000pt" viewBox="0 0 754.000000 754.000000"
 preserveAspectRatio="xMidYMid meet">
<metadata>
Created by potrace 1.14, written by Peter Selinger 2001-2017
</metadata>
<g transform="translate(0.000000,754.000000) scale(0.100000,-0.100000)"
fill="#000000" stroke="none">
<path d="M6026 6479 c-20 -17 -55 -64 -78 -103 -25 -43 -70 -98 -116 -140
-110 -105 -95 -99 -225 -86 -193 19 -382 -14 -556 -96 -51 -24 -104 -44 -117
-44 -38 0 -103 34 -248 129 -131 86 -141 91 -192 91 -76 0 -89 -22 -88 -150 1
-79 5 -106 28 -160 15 -36 37 -92 48 -125 11 -33 43 -93 70 -134 28 -40 46
-77 41 -81 -4 -4 -73 -13 -153 -19 -89 -7 -173 -19 -218 -33 -66 -19 -81 -20
-135 -10 -249 45 -749 78 -1057 69 -248 -7 -302 -22 -610 -171 -129 -63 -252
-122 -274 -130 -21 -9 -68 -38 -105 -65 -36 -26 -86 -61 -111 -76 -62 -39
-318 -297 -425 -430 -49 -60 -115 -139 -146 -175 -31 -36 -77 -98 -103 -139
-73 -113 -97 -131 -311 -226 -153 -67 -204 -82 -308 -91 l-83 -6 -28 73 c-56
144 -93 205 -149 242 -110 71 -194 130 -236 163 -33 26 -52 34 -75 32 -29 -3
-32 -7 -46 -60 -11 -47 -12 -76 -3 -157 19 -173 83 -270 220 -338 50 -24 73
-28 192 -34 75 -4 161 -14 191 -23 78 -22 126 -20 312 14 89 16 168 30 174 30
23 0 24 -34 9 -224 -23 -273 -13 -363 71 -691 56 -220 94 -328 214 -610 40
-93 97 -233 127 -310 30 -77 93 -213 139 -302 46 -88 84 -166 84 -173 0 -7
-16 -38 -36 -70 -45 -73 -48 -133 -10 -207 53 -104 82 -120 299 -168 128 -28
141 -28 282 6 112 27 130 36 169 80 58 63 58 135 -1 269 -25 56 -24 98 1 119
11 9 15 -1 20 -48 7 -61 18 -77 71 -103 39 -20 274 -88 302 -88 43 0 199 41
249 65 57 28 81 66 70 110 -4 14 -27 55 -51 91 -34 49 -45 75 -45 102 0 70 1
70 250 64 l105 -2 103 -206 103 -206 -30 -47 c-45 -70 -61 -115 -61 -174 0
-119 71 -187 252 -244 104 -32 120 -34 203 -30 191 12 375 114 405 226 18 68
-10 146 -94 258 -25 33 -46 68 -46 76 0 9 11 51 24 94 26 87 42 147 86 338 17
71 35 134 39 138 21 21 47 -19 97 -152 30 -78 54 -154 54 -169 0 -15 -9 -56
-20 -90 -37 -119 -20 -204 56 -272 37 -34 46 -37 164 -53 113 -15 134 -16 214
-3 125 21 189 43 236 83 34 29 40 41 40 73 0 60 -36 160 -85 236 -24 38 -45
79 -45 90 0 12 12 66 26 120 14 55 30 144 34 199 4 55 12 132 18 170 6 39 18
130 26 204 8 73 17 135 20 138 5 5 90 -6 322 -43 50 -8 124 -14 163 -14 90 0
433 64 526 98 39 14 138 48 220 76 119 41 184 71 314 145 235 133 304 182 404
285 122 125 202 234 270 368 74 145 82 190 68 410 -12 194 -25 246 -96 402
-94 206 -130 261 -245 376 -182 181 -372 300 -547 340 -115 26 -129 33 -138
62 -4 13 -24 64 -45 113 -21 50 -40 102 -44 116 -6 26 -5 26 62 32 108 10 161
31 222 85 88 79 139 193 119 267 -22 80 -158 142 -292 132 -56 -4 -95 -15
-177 -50 -58 -25 -129 -49 -159 -53 -53 -7 -53 -7 -46 17 4 13 24 53 44 89 34
62 36 70 36 155 -1 130 -54 271 -129 345 l-34 32 -36 -33z"/>
</g>
</svg>
